<svg class="svg-icon" style="width: 1em; height: 1em;vertical-align: middle;fill: currentColor;overflow: hidden;" viewBox="0 0 1024 1024" version="1.1" xmlns="http://www.w3.org/2000/svg"><path d="M440.232 975.872l-40.426-98.85a7.984 7.984 0 0 0-11.616-3.772l-90.808 56.208c-58.932 36.48-132.59-17.038-116.108-84.358l25.398-103.73a7.986 7.986 0 0 0-7.18-9.882l-106.502-7.902c-69.108-5.124-97.264-91.71-44.348-136.494L130.16 518.1a7.984 7.984 0 0 0 0-12.212l-81.52-68.994c-52.9-44.768-24.78-131.364 44.348-136.492l106.502-7.902a7.986 7.986 0 0 0 7.18-9.882L181.274 178.886c-16.478-67.312 57.162-120.84 116.108-84.358l90.806 56.208a7.986 7.986 0 0 0 11.616-3.774l40.426-98.85c26.232-64.142 117.276-64.162 143.516 0l40.424 98.848a7.988 7.988 0 0 0 11.618 3.774l90.806-56.208c58.928-36.472 132.594 17.026 116.108 84.358l-25.398 103.73a7.99 7.99 0 0 0 7.18 9.882l106.502 7.902c69.106 5.126 97.266 91.708 44.35 136.492l-81.52 68.994a7.986 7.986 0 0 0 0 12.214l81.52 68.992c53.022 44.882 24.644 131.378-44.35 136.494l-106.502 7.902a7.986 7.986 0 0 0-7.178 9.884l25.396 103.728c16.482 67.316-57.166 120.842-116.108 84.36l-90.806-56.208a7.988 7.988 0 0 0-11.618 3.774l-40.424 98.848c-26.318 64.356-117.35 63.986-143.514 0z m33.628-129.136l38.128 93.232 38.128-93.23c20.616-50.4 81.556-70.132 127.784-41.518l85.644 53.014-23.952-97.838c-12.95-52.888 24.76-104.678 78.974-108.698l100.452-7.452-76.888-65.072c-41.564-35.182-41.494-99.242 0.002-134.36l76.884-65.072-100.45-7.454c-54.302-4.03-91.9-55.896-78.976-108.698l23.956-97.838-85.646 53.014c-46.302 28.654-107.206 8.8-127.784-41.52l-38.128-93.23-38.128 93.234c-20.61 50.396-81.556 70.132-127.782 41.52l-85.646-53.016 23.954 97.836c12.948 52.892-24.762 104.676-78.976 108.7l-100.448 7.452 76.886 65.074c41.564 35.176 41.494 99.238 0 134.356L104.96 644.246l100.452 7.452c54.302 4.028 91.9 55.894 78.974 108.698l-23.954 97.838 85.646-53.014c46.376-28.71 107.244-8.704 127.782 41.516zM512 768c-141.16 0-256-114.842-256-256 0-141.16 114.84-256 256-256 141.158 0 256 114.84 256 256 0 141.158-114.842 256-256 256z m0-416c-88.224 0-160 71.776-160 160s71.776 160 160 160 160-71.776 160-160-71.776-160-160-160z" fill="" /></svg>